# xmcd
#
# Track frame offsets: 
#        150
#        13832
#        27287
#        40730
#        54265
#        69445
#        83377
#        97207
#        113775
#        127715
#
# Disc length: 1918 seconds
#
# Revision: 2
# Processed by: cddbd v1.4PL0 Copyright (c) Steve Scherf et al.
# Submitted via: ExactAudioCopy v0.90b4
#
DISCID=71077c0a
DTITLE=David Ball - Thinkin' Problem
DYEAR=1994
DGENRE=Country
TTITLE0=Thinkin' Problem
TTITLE1=Look What Followed Me Home
TTITLE2=Blowin' Smoke
TTITLE3=When The Thought Of You Catches Up With Me
TTITLE4=Honky Tonk Healin'
TTITLE5=A Walk On The Wild Side Of Life
TTITLE6=Down At The Bottom Of A Broken Heart
TTITLE7=What Do You Want With His Love
TTITLE8=Don't Think Twice
TTITLE9=12 - 12 - 84
EXTD=
EXTT0=
EXTT1=
EXTT2=
EXTT3=
EXTT4=
EXTT5=
EXTT6=
EXTT7=
EXTT8=
EXTT9=
PLAYORDER=
